<svg id="Layer_1" data-name="Layer 1" xmlns="http://www.w3.org/2000/svg" xmlns:xlink="http://www.w3.org/1999/xlink" viewBox="0 0 522.68 435.39" width="406" height="306" class="illustration styles_illustrationTablet__1DWOa"><defs><linearGradient id="linear-gradient" x1="214.17" y1="257.25" x2="166.51" y2="15.19" gradientUnits="userSpaceOnUse"><stop offset="0" stop-color="#fff" stop-opacity="0"></stop><stop offset="0.95" stop-color="#fff"></stop></linearGradient><linearGradient id="linear-gradient-2" x1="140.01" y1="362.67" x2="138.99" y2="273.15" gradientUnits="userSpaceOnUse"><stop offset="0" stop-color="#010101" stop-opacity="0"></stop><stop offset="0.95" stop-color="#010101"></stop></linearGradient><linearGradient id="linear-gradient-3" x1="87.61" y1="273.25" x2="117.65" y2="273.25" xlink:href="#linear-gradient-2"></linearGradient><linearGradient id="linear-gradient-4" x1="164.13" y1="250.97" x2="158.68" y2="343.53" xlink:href="#linear-gradient-2"></linearGradient><linearGradient id="linear-gradient-5" x1="87.79" y1="289.08" x2="88.47" y2="300.66" xlink:href="#linear-gradient-2"></linearGradient><linearGradient id="linear-gradient-6" x1="375.13" y1="159.08" x2="389.71" y2="60.32" xlink:href="#linear-gradient"></linearGradient><linearGradient id="linear-gradient-7" x1="380.11" y1="132.62" x2="386.7" y2="39.18" xlink:href="#linear-gradient-2"></linearGradient><linearGradient id="linear-gradient-8" x1="376.38" y1="63.58" x2="366.03" y2="141.65" xlink:href="#linear-gradient"></linearGradient><linearGradient id="linear-gradient-9" x1="117.43" y1="146.04" x2="116.17" y2="231.33" gradientTransform="translate(121.44 -73.66) rotate(7.66)" xlink:href="#linear-gradient"></linearGradient><linearGradient id="linear-gradient-10" x1="700.75" y1="-986.94" x2="699.49" y2="-901.66" gradientTransform="translate(-732.61 80.8) rotate(-40.37)" xlink:href="#linear-gradient"></linearGradient><linearGradient id="linear-gradient-11" x1="-253.94" y1="372.72" x2="-255.2" y2="458" gradientTransform="translate(583.88 -115.11) rotate(31.47)" xlink:href="#linear-gradient"></linearGradient><linearGradient id="linear-gradient-12" x1="283.85" y1="-1111.43" x2="282.6" y2="-1026.14" gradientTransform="translate(-259.82 -318.64) rotate(-16.55)" xlink:href="#linear-gradient"></linearGradient><linearGradient id="linear-gradient-13" x1="314.83" y1="112.04" x2="314.01" y2="168.05" gradientTransform="translate(-247.07 110.63) rotate(-13.17)" xlink:href="#linear-gradient"></linearGradient><linearGradient id="linear-gradient-14" x1="864.91" y1="-311.14" x2="864.08" y2="-255.13" gradientTransform="translate(-990.4 558.62) rotate(-61.19)" xlink:href="#linear-gradient"></linearGradient><linearGradient id="linear-gradient-15" x1="280.89" y1="88.71" x2="280.08" y2="143.4" gradientTransform="translate(-247.07 110.63) rotate(-13.17)" xlink:href="#linear-gradient"></linearGradient><linearGradient id="linear-gradient-16" x1="859.86" y1="-327.24" x2="859.06" y2="-272.55" gradientTransform="translate(-990.4 558.62) rotate(-61.19)" xlink:href="#linear-gradient"></linearGradient><linearGradient id="linear-gradient-17" x1="-211.41" y1="438.75" x2="-212.03" y2="480.89" gradientTransform="translate(446.33 -110.14) rotate(23.91)" xlink:href="#linear-gradient"></linearGradient><linearGradient id="linear-gradient-18" x1="273.31" y1="-222.43" x2="272.69" y2="-180.29" gradientTransform="translate(-416.81 -200.89) rotate(-24.11)" xlink:href="#linear-gradient"></linearGradient><linearGradient id="linear-gradient-19" x1="491.57" y1="12.26" x2="490.45" y2="88.46" gradientTransform="translate(-270 152.25) rotate(-15.56)" xlink:href="#linear-gradient"></linearGradient><linearGradient id="linear-gradient-20" x1="1052.56" y1="-627.13" x2="1051.44" y2="-550.93" gradientTransform="translate(-994.01 630.86) rotate(-63.58)" xlink:href="#linear-gradient"></linearGradient><linearGradient id="linear-gradient-21" x1="186.54" y1="91.13" x2="185.18" y2="183.62" gradientTransform="matrix(0.98, 0.2, -0.2, 0.98, 197.17, -112.75)" xlink:href="#linear-gradient"></linearGradient><linearGradient id="linear-gradient-22" x1="786.11" y1="-1108.21" x2="784.75" y2="-1015.72" gradientTransform="translate(-665.35 -16.26) rotate(-36.5)" xlink:href="#linear-gradient"></linearGradient><linearGradient id="linear-gradient-23" x1="331.02" y1="90.53" x2="329.14" y2="176.13" gradientUnits="userSpaceOnUse"><stop offset="0" stop-color="#fff" stop-opacity="0"></stop><stop offset="0.39" stop-color="#fff"></stop></linearGradient></defs><title>Inbox Message Sent</title><path d="M542,336.25a49,49,0,0,1-1.5,8.35,71.28,71.28,0,0,1-7.55,18c-19.28,33.65-57,53.09-95,61s-77.21,6.21-116,8C269.66,434,217.45,442.82,165.1,440a354.84,354.84,0,0,1-73.4-11.89c-115.62,0-59.1-176.57-52.45-243.51,2.87-28.84,6.22-59.07,22.68-82.92C81.4,73.42,115.87,59.34,149.6,53.22s68.42-5.81,102-12.84c54.79-11.5,107.76-42.53,163-33.69C468.83,15.36,512.83,67,512.8,121.9c0,38.54-17.49,76.86-7.45,115.24C514.08,270.48,545.4,300,542,336.25Z" transform="translate(-19.61 -5.13)" fill="#656565" opacity="0.24" style="isolation: isolate;"></path><path d="M187.05,110.33c-12.49,2.17-25.05,4.73-36.58,10-8.63,3.93-16.5,9.31-24.27,14.75C102.78,151.49,78.83,170.32,69,197.18a75.21,75.21,0,0,0,69.83,101,66.87,66.87,0,0,1-6.31-98c7.52-7.91,16.88-13.87,26.69-18.66,31.36-15.3,67.25-18.88,102.12-17.51s48.2-6.88,83-4c-7.77-19.34,3.93-23.73-7.12-41.41-16.24-26-33.76-21.62-61.47-19.2C246.06,102.09,216.4,105.23,187.05,110.33Z" transform="translate(-19.61 -5.13)" fill="#656565" opacity="0.24" style="isolation: isolate;"></path><path d="M181.4,105.94c-12.49,2.17-25.05,4.73-36.58,10-8.62,3.93-16.5,9.31-24.26,14.75-23.42,16.42-47.37,35.25-57.19,62.11a75.21,75.21,0,0,0,69.82,101,66.86,66.86,0,0,1-6.3-97.95c7.51-7.91,16.87-13.87,26.68-18.66,31.37-15.3,67.26-18.88,102.13-17.51s55.12,5.14,89.89,8c-7.77-19.34-3-35.75-14-53.43-16.24-26-33.75-21.62-61.46-19.2C240.41,97.7,210.76,100.84,181.4,105.94Z" transform="translate(-19.61 -5.13)" fill="url(#linear-gradient)"></path><path d="M540.54,344.6a71.28,71.28,0,0,1-7.55,18c-19.28,33.65-57,53.09-95,61s-77.21,6.21-116,8C269.66,434,217.45,442.82,165.1,440a354.84,354.84,0,0,1-73.4-11.89c-16.07-4.38-49.28-10.09-59-25-6.08-9.29-7.08-26.7-7.28-41.36,3.64.57,7.24,1.43,10.42,1.73,10.76,1,21.65,1.11,32.44,1.44q34.27,1.11,68.59,1.47,136.61,1.45,273-9Q475.33,352.35,540.54,344.6Z" transform="translate(-19.61 -5.13)" fill="#656565" opacity="0.24" style="isolation: isolate;"></path><rect x="132.85" y="289.69" width="13.61" height="83.96" fill="#656565"></rect><rect x="132.85" y="289.69" width="13.61" height="83.96" fill="url(#linear-gradient-2)"></rect><path d="M198.08,269.05v33.27H104.81V269.05a17.34,17.34,0,0,1,17.36-17.33h58.56A17.35,17.35,0,0,1,198.08,269.05Z" transform="translate(-19.61 -5.13)" fill="#656565"></path><path d="M102.63,249.48h0a15,15,0,0,1,15,15V297a0,0,0,0,1,0,0h-30a0,0,0,0,1,0,0V264.5A15,15,0,0,1,102.63,249.48Z" fill="url(#linear-gradient-3)"></path><path d="M198.09,269.05v33.26H140.62V267.1c-1.72-9.2-8.2-13.43-13.52-15.38h53.63A17.35,17.35,0,0,1,198.09,269.05Z" transform="translate(-19.61 -5.13)" fill="url(#linear-gradient-4)"></path><rect x="55.25" y="292.42" width="65.76" height="4.77" rx="2.39" fill="#656565"></rect><rect x="55.25" y="292.42" width="65.76" height="4.77" rx="2.39" fill="url(#linear-gradient-5)"></rect><path d="M123.21,371.42c-7.93,1.42-15.79,3.25-23.8,4-5.2.5-10.94.76-14.71,4.38a5,5,0,0,0-1.68,3c-.21,2.5,2.4,4.25,4.74,5.17,6.83,2.7,14.24,3.47,21.57,3.94,11.92.75,23.88.77,35.84.78l35.6,0c10.52,0,22.18-.43,29.71-7.76a9.31,9.31,0,0,0,3.06-5.31c.42-3.34-2.12-6.49-5.19-7.89-5.31-2.42-13.26-1.92-19-2.56Q178,368,166.64,367.83A231.57,231.57,0,0,0,123.21,371.42Z" transform="translate(-19.61 -5.13)" fill="#656565" opacity="0.24" style="isolation: isolate;"></path><path d="M173.12,274.1c-.13.43-.51,1.72-.62,2.19L171.23,281a2.15,2.15,0,0,0-.09.64.49.49,0,0,0,.56.53,2.37,2.37,0,0,0,1.33-.55,5.19,5.19,0,0,0,1.72-4,5.3,5.3,0,0,0-2.44-4.6,7.52,7.52,0,0,0-3.8-.89c-4.48,0-7.62,3-7.62,7.17S163.72,286,168,286a11.5,11.5,0,0,0,3.25-.47,9.39,9.39,0,0,0,2.38-1.12l1.29,1.87a10.59,10.59,0,0,1-2.65,1.23,15.52,15.52,0,0,1-4.5.67,9.48,9.48,0,0,1-7-2.52,8.73,8.73,0,0,1-2.46-6.28,9.15,9.15,0,0,1,2.59-6.62,10.46,10.46,0,0,1,7.81-2.91c4.95,0,8.47,3.18,8.47,7.62a7.14,7.14,0,0,1-2,5.11,5.66,5.66,0,0,1-4,1.74,2.1,2.1,0,0,1-1.82-.83,1.35,1.35,0,0,1-.19-.65,3.47,3.47,0,0,1-2.85,1.33c-2.1,0-3.43-1.57-3.43-4,0-3.58,2.35-6.55,5.17-6.55a2.35,2.35,0,0,1,2.36,1.19l.21-.75Zm-4.37,6.31a8,8,0,0,0,.84-3.27c0-.87-.48-1.47-1.23-1.47a2.46,2.46,0,0,0-2.08,1.53,7.38,7.38,0,0,0-.85,3.18c0,1.13.43,1.72,1.24,1.72S168.19,281.49,168.75,280.41Z" transform="translate(-19.61 -5.13)" fill="#656565"></path><polygon points="456.12 117.59 325.98 162.6 306.08 119.67 456.12 117.59" fill="#656565"></polygon><polygon points="456.12 117.59 325.98 162.6 306.08 119.67 456.12 117.59" fill="url(#linear-gradient-6)"></polygon><polygon points="312.71 134.52 426.06 126.99 456.12 117.59 306.08 119.67 312.71 134.52" fill="url(#linear-gradient-7)"></polygon><polygon points="279.8 72.14 464.48 118.96 303.83 99.79 279.8 72.14" fill="#656565"></polygon><polygon points="196.13 127.07 303.83 99.79 464.48 118.96 196.13 127.07" fill="#656565"></polygon><polygon points="279.8 72.14 464.48 118.96 303.83 99.79 279.8 72.14" fill="url(#linear-gradient-8)"></polygon><rect x="208.38" y="148.32" width="38.71" height="23.86" transform="translate(-14.62 -12) rotate(1.75)" fill="#656565"></rect><polygon points="227.11 167.64 188.42 166.46 189.14 142.61 228.59 143.5 227.11 167.64" fill="url(#linear-gradient-9)"></polygon><polygon points="189.14 142.61 207.95 162.9 227.97 144.15 189.14 142.61" fill="url(#linear-gradient-10)"></polygon><rect x="135.98" y="121.83" width="38.71" height="23.86" transform="translate(53.31 -59.06) rotate(25.56)" fill="#656565"></rect><polygon points="148.04 147.75 113.12 131.04 123.42 109.52 159.14 126.27 148.04 147.75" fill="url(#linear-gradient-11)"></polygon><polygon points="123.42 109.52 132.43 135.68 158.31 126.6 123.42 109.52" fill="url(#linear-gradient-12)"></polygon><rect x="101.6" y="189.68" width="25.42" height="15.67" transform="translate(-77.89 43.08) rotate(-19.08)" fill="#656565"></rect><polygon points="109.28 195.64 85.25 203.95 80.13 189.14 104.55 180.48 109.28 195.64" fill="url(#linear-gradient-13)"></polygon><polygon points="80.13 189.14 96.41 197.2 104.32 181.02 80.13 189.14" fill="url(#linear-gradient-14)"></polygon><rect x="63.31" y="173.83" width="24.83" height="15.3" transform="translate(-74.77 29.59) rotate(-19.08)" fill="#656565"></rect><polygon points="70.34 179.53 46.88 187.64 41.88 173.18 65.72 164.72 70.34 179.53" fill="url(#linear-gradient-15)"></polygon><polygon points="41.88 173.18 57.78 181.06 65.5 165.25 41.88 173.18" fill="url(#linear-gradient-16)"></polygon><rect x="70.96" y="235.52" width="19.13" height="11.79" transform="translate(58.94 -18.2) rotate(18)" fill="#656565"></rect><polygon points="68.18 244.84 49.99 238.94 53.64 227.72 72.22 233.6 68.18 244.84" fill="url(#linear-gradient-17)"></polygon><polygon points="53.64 227.72 59.75 239.95 71.84 233.82 53.64 227.72" fill="url(#linear-gradient-18)"></polygon><rect x="224.86" y="86.47" width="34.59" height="21.32" transform="translate(-38.36 90.23) rotate(-21.47)" fill="#656565"></rect><polygon points="242.54 95.59 210.35 108.25 202.54 88.41 235.25 75.25 242.54 95.59" fill="url(#linear-gradient-19)"></polygon><polygon points="202.54 88.41 225.14 98.45 234.97 76 202.54 88.41" fill="url(#linear-gradient-20)"></polygon><rect x="344.29" y="79.27" width="41.98" height="25.88" transform="translate(-8.83 -40.44) rotate(5.62)" fill="#656565"></rect><polygon points="365.3 102.02 323.51 97.91 326.05 72.15 368.66 76.01 365.3 102.02" fill="url(#linear-gradient-21)"></polygon><polygon points="326.05 72.15 344.92 95.48 367.95 76.66 326.05 72.15" fill="url(#linear-gradient-22)"></polygon><polygon points="196.13 127.07 303.83 99.79 464.48 118.96 196.13 127.07" fill="url(#linear-gradient-23)"></polygon></svg>