<svg width="26" height="26" viewBox="0 0 26 26" fill="none" xmlns="http://www.w3.org/2000/svg">
<path d="M13 13C16.5899 13 19.5 10.0899 19.5 6.5C19.5 2.91015 16.5899 0 13 0C9.41015 0 6.5 2.91015 6.5 6.5C6.5 10.0899 9.41015 13 13 13ZM17.3333 6.5C17.3333 8.89323 15.3932 10.8333 13 10.8333C10.6068 10.8333 8.66667 8.89323 8.66667 6.5C8.66667 4.10677 10.6068 2.16667 13 2.16667C15.3932 2.16667 17.3333 4.10677 17.3333 6.5Z" fill="white"/>
<path d="M26 23.8333C26 26 23.8333 26 23.8333 26H2.16667C2.16667 26 0 26 0 23.8333C0 21.6667 2.16667 15.1667 13 15.1667C23.8333 15.1667 26 21.6667 26 23.8333ZM23.8333 23.8258C23.8302 23.2911 23.5002 21.6893 22.0304 20.2196C20.6172 18.8063 17.9597 17.3333 13 17.3333C8.04024 17.3333 5.38277 18.8063 3.96954 20.2196C2.4998 21.6893 2.16975 23.2911 2.16667 23.8258H23.8333Z" fill="white"/>
</svg>
