<svg id="Layer_1" data-name="Layer 1" xmlns="http://www.w3.org/2000/svg" viewBox="0 0 400 300" width="406" height="306" class="illustration styles_illustrationTablet__1DWOa"><title>_</title><path d="M295.5,71.44c33.55,10,59,36.93,64.76,70.22,4.88,28.06-5.7,62.29-61.79,77.37C241.22,234.43,82.29,239.77,54.19,194S34.1,90.06,95.23,70.39C138.09,56.6,230,52,295.5,71.44Z" fill="#e6e6e6" opacity="0.3"></path><ellipse cx="199.2" cy="258.16" rx="135.46" ry="8.27" fill="#e6e6e6" opacity="0.45"></ellipse><path d="M101.86,245.2l-5.45,3.15,5.79,9.2a1.87,1.87,0,0,0,3.44-.84C105.91,253.19,105.42,248.49,101.86,245.2Z" fill="#4b4c4d"></path><path d="M106.79,187.13,112.63,213a24,24,0,0,1-4.44,20l-9,11.61,5.45,5.34,17.8-17.95a23.52,23.52,0,0,0,6.75-14.6l2.69-31.84Z" fill="#24285b"></path><path d="M102.43,163.15s-6.54,21.14,5.81,25.82,39.09,67.27,39.09,67.27l8.85-3.4s-17.05-54.48-15.79-76.26Z" fill="#24285b"></path><path d="M149.71,255.32l3,5.53,9.33-5.57a1.87,1.87,0,0,0-.76-3.46C157.79,251.47,153.08,251.85,149.71,255.32Z" fill="#4b4c4d"></path><path d="M140.1,99.67s.38,5.88-.69,9.77a3,3,0,0,1-3.66,2.06,6.56,6.56,0,0,1-5-5l-1.65-5.19a5.29,5.29,0,0,1,2.45-5.6C134.92,93.35,140.05,96.07,140.1,99.67Z" fill="#f4a28c"></path><polygon points="129.38 102.22 125.93 121.23 136.55 122.39 134.8 108.08 129.38 102.22" fill="#f4a28c"></polygon><path d="M140.15,103.39l1.59,2.31a.94.94,0,0,1-.62,1.47l-2.26.37Z" fill="#f4a28c"></path><path d="M135.32,111.2a7,7,0,0,1-3.41-2.13s.07,3.53,3.88,7.11Z" fill="#ce8172" opacity="0.31"></path><path d="M139,99.84a10.43,10.43,0,0,1-1.35.26,9,9,0,0,0-1.9.5l-.49.17a1.92,1.92,0,0,0-1.25,1.67c-.1,1.88-.93,5.29-5.5,5.38,0,0-4.17-7.22-.12-12.3,1.74-2.18,4.56-3.9,7.43-3.54a4.14,4.14,0,0,1,1.46.41,5.08,5.08,0,0,1,1.71,1.68,24.58,24.58,0,0,1,1.75,2.86,3.06,3.06,0,0,1,.42,1.3C141.13,99.32,139.8,99.62,139,99.84Z" fill="#ffd200"></path><path d="M133.65,105.71a1.48,1.48,0,0,0,.3-1.45c-.27-.81-.85-1.9-1.93-1.81s-1.44,1.83-.76,3a1.49,1.49,0,0,0,2.39.22Z" fill="#f4a28c"></path><path d="M137.79,116.71l7.6.83s25.31,4.89,34.75-4.51,8-27.07,8-27.07l6.58.43s11.38,44.23-30.79,53.37a22.2,22.2,0,0,0-16.17,14.44l-7.37,22.63-38.6-13.35.47-19.9a19.94,19.94,0,0,0-7.71-16.31C85,120,71.75,104.33,84,79.09l7.46.49S82.43,116.91,137.79,116.71Z" fill="#4b4c4d"></path><path d="M86.83,79.37s-10.78,24.88,9.83,42.17c11,9.18,15.44,15.46,17.25,19.34C116.52,146.49,126.5,172,126.5,172l-24.74-8.55L102.2,145a19.28,19.28,0,0,0-7.68-17.72S68.26,110.63,84,79.09Z" opacity="0.08"></path><polygon points="85.13 79.2 84.11 74.47 90.5 74.9 90.19 79.54 85.13 79.2" fill="#f4a28c"></polygon><polygon points="188.45 86.02 187.43 81.29 193.82 81.71 193.51 86.36 188.45 86.02" fill="#f4a28c"></polygon><path d="M265.45,107.86a32.62,32.62,0,0,1,1.61,8.59,2.65,2.65,0,0,1-2.7,2.6,5.83,5.83,0,0,1-5.45-3.21l-2.6-4.11a4.73,4.73,0,0,1,.86-5.39C259.55,103.58,264.59,104.77,265.45,107.86Z" fill="#f4a28c"></path><polygon points="256.78 112.48 258.1 129.66 267.52 128.26 262.78 116.32 256.78 112.48" fill="#f4a28c"></polygon><path d="M261.06,113.54s-.51-2-1.95-1.46-.73,3.34,1.34,3.13Z" fill="#f4a28c"></path><polygon points="275.42 187.36 281.95 246.41 275.42 246.41 259.51 195.84 275.42 187.36" fill="#24285b"></polygon><path d="M266.33,111.06l1.9,1.63a.85.85,0,0,1-.21,1.41l-1.87.83Z" fill="#f4a28c"></path><path d="M267.52,128.26s14.62-.71,15.21-19.64-21.29-28.49-21.29-28.49-10.13-.58-6.62-6.63,11.33,1.75,11.33,1.75,31.6,7.42,31,34.15-14.83,38-14.83,38Z" fill="#f4a28c"></path><path d="M263.93,118.89a6.25,6.25,0,0,1-3.42-1.07s.86,3,4.95,5.25Z" fill="#ce8172" opacity="0.31"></path><path d="M281,133.21s23.13,16.1,11.42,31-17,23.13-17,23.13l-28-2.93s-3.21-21.66-9.95-33.07-1.17-19.91,5.86-21.66S260.26,122.09,281,133.21Z" fill="#4b4c4d"></path><path d="M259.7,126.58s13,11.62,6.45,24.25-5.64,35-5.64,35l-13.13-1.37s-3.52-20.25-7.53-28.24c0,0-3.75-6.85-4.86-10.47s11.36-19.14,11.36-19.14Z" opacity="0.09"></path><path d="M247.38,184.43s-2.9,8.24,1,12.76,25.89,16,25.89,16l-25.89,4.29,1.37,6.05s29.27,2.15,34.73-6.24-16-25.56-16-25.56l6.9-4.39Z" fill="#24285b"></path><path d="M261.06,110.23s3.62,18.29-8.24,20.34-15.76-3.14-18.43-7.5,20,1.11,18.29-12,9.53-12.54,13.18-8.73S261.06,110.23,261.06,110.23Z" fill="#ffd200"></path><path d="M279.9,246.41s5.85,10,2.05,10.32-6.53-10.32-6.53-10.32Z" fill="#4b4c4d"></path><path d="M250.16,223.61s-3.47,8.52-6.41,6.09,4.85-11.25,4.85-11.25Z" fill="#4b4c4d"></path><rect x="59.98" y="40.73" width="253.39" height="42.07" transform="translate(3.8 -10.49) rotate(3.25)" fill="#c9c9c9"></rect><path d="M51.54,35.25h1.24a7.42,7.42,0,0,1,7.42,7.42V66a7.42,7.42,0,0,1-7.42,7.42H51.54a0,0,0,0,1,0,0V35.25A0,0,0,0,1,51.54,35.25Z" transform="translate(108.56 111.74) rotate(-176.75)" fill="#24285b"></path><path d="M357.39,70.34a1.2,1.2,0,0,1-.13,2.21l-11.79,4.28L312,90l2.38-42,31.8,16.82Z" fill="#e6e6e6"></path><path d="M357.26,72.55l-11.79,4.28.69-12.07,11.23,5.58A1.2,1.2,0,0,1,357.26,72.55Z" fill="#24285b"></path><rect x="59.98" y="54.42" width="253.39" height="14.68" transform="translate(3.8 -10.49) rotate(3.25)" opacity="0.09"></rect><path d="M245.33,152.91c10.78,4.52,18.34-11,8.34-17.07a59.92,59.92,0,0,0-8.8-4.46c-10.73-4.29-26.34-28.49-17-44.69,0,0,5.27-9.7-.78-11.29s-4.49,10.9-4.49,10.9-15.61,25.39-1.56,43.53C228.68,139.65,237.12,149.47,245.33,152.91Z" fill="#f4a28c"></path></svg>