<svg xmlns="http://www.w3.org/2000/svg" viewBox="0 0 400 300" width="406" height="306" class="illustration styles_illustrationTablet__1DWOa"><g id="_577_team_work_flatline" data-name="#577_team_work_flatline"><path d="M135.74,167.76l3.39,3,12.05-14.46,3.89,4s-10,20.93-17.09,21.41a9,9,0,0,1-9.27-5.37Z" fill="#fff"></path><path d="M137.17,182.19a9.51,9.51,0,0,1-8.93-5.73.48.48,0,0,1,.09-.49l7-8.53a.52.52,0,0,1,.35-.18.49.49,0,0,1,.37.12l3,2.64L150.8,156a.47.47,0,0,1,.36-.18.5.5,0,0,1,.38.15l3.89,4a.52.52,0,0,1,.09.57c-.41.86-10.19,21.2-17.51,21.69Zm-7.88-5.82a8.45,8.45,0,0,0,8.65,4.79c6.29-.42,15.25-18.22,16.53-20.81L151.21,157l-11.69,14a.48.48,0,0,1-.35.18.5.5,0,0,1-.37-.12l-3-2.63Z" fill="#231f20"></path><path d="M111.4,253.91s-1.92,5.42-1.75,6.75,6.64,8.14,8.44,8.13,7-.46,7.32-1.6-4.56-2.11-5.29-2.53-.76-4-.76-4Z" fill="#fff"></path><path d="M118.09,269.29c-2.16,0-8.75-7.13-8.94-8.57s1.58-6.41,1.78-7a.52.52,0,0,1,.34-.31.48.48,0,0,1,.46.1l8,6.76a.49.49,0,0,1,.18.37,9,9,0,0,0,.53,3.58,12.21,12.21,0,0,0,1.29.42c2.08.63,3.71,1.17,4.13,2a.89.89,0,0,1,.08.71c-.58,1.83-7.73,2-7.8,2Zm-6.45-14.53c-.71,2.09-1.59,5.05-1.49,5.83.22,1.63,6.83,7.7,7.94,7.7h0c2.63,0,6.56-.63,6.84-1.25-.18-.42-2.62-1.15-3.54-1.42a9,9,0,0,1-1.51-.52c-.81-.46-1-2.73-1-4.2Z" fill="#231f20"></path><path d="M123.19,198.27s10.08,29.34,8.64,33.83-12.47,28.57-12.47,28.57l-8-6.76s5.65-21.52,5.14-25S108,208.19,108,208.19s-10,23.73-16.22,23.88-27.3,2.24-27.3,2.24L67,225.1s21-4.7,22.52-7,6.61-27.24,6.61-27.24L122,196.22" fill="#231f20"></path><path d="M119.36,261.17a.58.58,0,0,1-.33-.12l-8-6.76a.49.49,0,0,1-.16-.51c1.94-7.41,5.51-22.12,5.13-24.78-.42-2.87-6.32-15.84-8-19.59-.87,2-2.9,6.45-5.34,10.9-4.44,8.07-8.1,12.19-10.89,12.26-6.16.14-27,2.22-27.26,2.24a.52.52,0,0,1-.44-.17.54.54,0,0,1-.1-.46l2.5-9.21a.49.49,0,0,1,.37-.35c8-1.8,21.18-5.24,22.22-6.79,1.22-1.8,5.13-20.15,6.53-27.06a.47.47,0,0,1,.21-.32.51.51,0,0,1,.38-.07l25.88,5.35a.5.5,0,0,1-.2,1l-25.39-5.25c-.85,4.15-5.1,24.74-6.58,26.93s-19.33,6.41-22.53,7.14l-2.23,8.21c3.75-.36,21.07-2,26.62-2.17,4.87-.12,13-17.06,15.77-23.58a.49.49,0,0,1,.45-.3h0a.49.49,0,0,1,.45.29c.33.7,8.09,17.39,8.6,20.88.48,3.33-4.36,22.13-5.07,24.87l7.21,6.13c1.71-3.75,10.89-23.89,12.18-27.91,1.14-3.56-5.86-25.4-8.65-33.52a.5.5,0,1,1,1-.32c.41,1.2,10.12,29.54,8.65,34.15s-12,27.63-12.5,28.61a.46.46,0,0,1-.34.28Z" fill="#231f20"></path><path d="M139.13,170.73c-1.16,2.8-6.77,8.84-6.53,9.12-1.11-1.3-2.69-2.27-3.89-3.56-.76-.82-4.26-3.77-4.24-4.83-.17,9-.53,17.84-1.28,26.81-8,3.93-29.19-.53-29.47-1.47-1-3.48.91-9.51,1.3-13.05.72-6.69,1.06-13.44,2.09-20.08a13.86,13.86,0,0,1,1.7-5.37c2.07-3.23,7.14-4.44,10.68-3,5.35,2.19,12.84-1.07,17.66,1.74a13.43,13.43,0,0,1,3.1,2.83l5,5.64c.85,1,1.66,2,2.59,2.89.4.37,1.29.73,1.45,1.29A1.77,1.77,0,0,1,139.13,170.73Z" fill="#a5aeb0"></path><path d="M106.36,138a3.89,3.89,0,0,1,1-.37c1.33-.33,1.39,0,2.32-1a9.94,9.94,0,0,1,5.23-2.8c3.83-.74,6.88.84,6.54,5.19a12.44,12.44,0,0,1-1.68,4.9c-1.79,3.3-4.53,6.43-8.21,7.18-1.09.23-3.17.39-4.09-.4a10.09,10.09,0,0,1-3.25-9.31,5.82,5.82,0,0,1,.76-2.06A3.92,3.92,0,0,1,106.36,138Z" fill="#fff"></path><path d="M109.68,151.72a4,4,0,0,1-2.57-.7,10.55,10.55,0,0,1-3.42-9.78,6.09,6.09,0,0,1,.83-2.24,4.36,4.36,0,0,1,1.61-1.46,4.25,4.25,0,0,1,1.07-.42c.36-.09.63-.13.86-.17.54-.09.64-.11,1.21-.72a10.3,10.3,0,0,1,5.51-2.95c2.33-.45,4.32-.07,5.6,1.08a5.37,5.37,0,0,1,1.53,4.64,12.6,12.6,0,0,1-1.74,5.1c-1.59,2.92-4.36,6.58-8.55,7.43A9.89,9.89,0,0,1,109.68,151.72Zm6.94-17.62a8.11,8.11,0,0,0-1.65.17,9.39,9.39,0,0,0-5,2.64,2.49,2.49,0,0,1-1.78,1c-.2,0-.45.07-.78.15a3.34,3.34,0,0,0-.84.33h0a3.3,3.3,0,0,0-1.24,1.13,5.11,5.11,0,0,0-.69,1.87,9.56,9.56,0,0,0,3.09,8.85c.64.54,2.32.56,3.66.28,3.81-.78,6.39-4.2,7.88-6.93a11.81,11.81,0,0,0,1.61-4.7,4.34,4.34,0,0,0-1.19-3.81A4.55,4.55,0,0,0,116.62,134.1ZM106.36,138h0Z" fill="#231f20"></path><path d="M118.53,153.49l.73,5.83a4.29,4.29,0,0,1-4.89,2.89c-3.94-.49-4.75-3.17-4.75-3.17l-1.19-10.8s2.66-1.84,1.12-7.91a19.08,19.08,0,0,0,10.11.24s2,6.59,2,9.62S118.57,153.44,118.53,153.49Z" fill="#fff"></path><path d="M115.12,162.76a7.81,7.81,0,0,1-.81,0c-4.21-.52-5.13-3.4-5.17-3.52l-1.21-10.9a.52.52,0,0,1,.21-.47s2.35-1.77.93-7.37a.48.48,0,0,1,.15-.49.46.46,0,0,1,.5-.1,18.92,18.92,0,0,0,9.82.22.51.51,0,0,1,.6.34c.08.28,2,6.71,2,9.77a3.72,3.72,0,0,1-3.07,3.68l.68,5.38a.66.66,0,0,1,0,.2A4.82,4.82,0,0,1,115.12,162.76ZM109,148.44,110.12,159s.78,2.29,4.31,2.73a3.79,3.79,0,0,0,4.32-2.45l-.72-5.72a.49.49,0,0,1,.14-.41.62.62,0,0,1,.35-.16,2.9,2.9,0,0,0,2.63-2.8c0-2.46-1.39-7.49-1.84-9a20,20,0,0,1-9.08-.11C111.19,145.75,109.59,147.83,109,148.44Z" fill="#231f20"></path><path d="M110.65,147.79a2.55,2.55,0,0,0-1-1.24,4.49,4.49,0,0,0-1.42-.52,1.76,1.76,0,0,0-.82-.05,1.32,1.32,0,0,0-.53.26,1.92,1.92,0,0,0-.81,1.07,2.18,2.18,0,0,0,.08,1.1,4.52,4.52,0,0,0,.42,1.13,3.11,3.11,0,0,0,1.87,1.44,3.06,3.06,0,0,0,2.33-.32" fill="#fff"></path><path d="M109.22,151.58a3.5,3.5,0,0,1-.91-.12,3.57,3.57,0,0,1-2.17-1.67,4.81,4.81,0,0,1-.48-1.26,2.83,2.83,0,0,1-.08-1.34,2.49,2.49,0,0,1,1-1.36,2.18,2.18,0,0,1,.7-.34,2.31,2.31,0,0,1,1,0,4.87,4.87,0,0,1,1.58.59,3,3,0,0,1,1.2,1.49.5.5,0,1,1-.94.34,2,2,0,0,0-.8-1,4,4,0,0,0-1.26-.45,1.65,1.65,0,0,0-.6-.06,1.16,1.16,0,0,0-.35.18,1.53,1.53,0,0,0-.61.79,1.84,1.84,0,0,0,.07.86,4,4,0,0,0,.38,1,2.63,2.63,0,0,0,1.56,1.21,2.61,2.61,0,0,0,2-.27.49.49,0,0,1,.68.18.5.5,0,0,1-.17.68A3.52,3.52,0,0,1,109.22,151.58Z" fill="#231f20"></path><path d="M117.2,144.82s2.45,2.68,2,3.27-1.77.45-1.77.45" fill="#fff"></path><path d="M117.85,149.06l-.43,0a.5.5,0,0,1,.11-1,2.33,2.33,0,0,0,1.26-.17,10.6,10.6,0,0,0-2-2.71.51.51,0,0,1,0-.71.49.49,0,0,1,.7,0c2.71,3,2.25,3.66,2.1,3.88A2.2,2.2,0,0,1,117.85,149.06Zm1-1.13h0Z" fill="#231f20"></path><ellipse cx="115.47" cy="144.39" rx="0.5" ry="0.7" transform="translate(-9.05 7.72) rotate(-3.69)" fill="#231f20"></ellipse><ellipse cx="119.73" cy="143.86" rx="0.5" ry="0.7" transform="translate(-25.74 26.09) rotate(-11.24)" fill="#231f20"></ellipse><path d="M116.83,150.94a5.15,5.15,0,0,1-2.68-.63.51.51,0,0,1-.17-.69.49.49,0,0,1,.69-.16c1.37.84,3.9.36,4.76.11a.5.5,0,1,1,.28,1A11.59,11.59,0,0,1,116.83,150.94Z" fill="#231f20"></path><path d="M118.53,153.49s-3.52,1.3-5.81.35c0,0,3,4.58,6.31,3.65Z" fill="#231f20"></path><path d="M118.11,158.11c-3.17,0-5.7-3.82-5.81-4a.5.5,0,0,1,.61-.73c2.08.86,5.41-.34,5.44-.36a.52.52,0,0,1,.44,0,.47.47,0,0,1,.23.36l.51,4a.5.5,0,0,1-.36.55A4,4,0,0,1,118.11,158.11ZM114,154.65c1,1.12,2.69,2.67,4.5,2.44l-.37-2.94A11.21,11.21,0,0,1,114,154.65Z" fill="#231f20"></path><path d="M67,225.1s-4.88-.69-6.68-.3S52.16,246,54.94,245.18s9.53-10.87,9.53-10.87Z" fill="#fff"></path><path d="M54.79,245.71a.86.86,0,0,1-.61-.25c-1.08-1.06.12-6.28,1.33-10.47.49-1.72,3-10.32,4.66-10.68,1.87-.41,6.66.27,6.86.3a.51.51,0,0,1,.35.22.49.49,0,0,1,.06.41L65,234.44a.52.52,0,0,1-.07.15c-.7,1-6.92,10.19-9.79,11.07A1,1,0,0,1,54.79,245.71Zm7.05-20.53a7.24,7.24,0,0,0-1.45.11c-1,.57-4.28,9.87-5.35,15.91-.45,2.54-.27,3.29-.19,3.49,2.18-.78,7.29-7.82,9.16-10.59l2.32-8.57A38.57,38.57,0,0,0,61.84,225.18Z" fill="#231f20"></path><path d="M199.25,174s12.18,4.59,13.57,3.95-2.17-16.53-2.17-16.53l4.73-1.1s6.05,21.26,3.39,24.88-16.39.2-19.52-3.53S199.25,174,199.25,174Z" fill="#fff"></path><path d="M214,187.23c-5.38,0-12.84-2.57-15.09-5.25-3.35-4,0-8.26,0-8.3a.52.52,0,0,1,.57-.16c5.67,2.14,12,4.18,13.12,4,.49-1.11-.81-8.92-2.39-16a.5.5,0,0,1,.38-.6l4.73-1.1a.5.5,0,0,1,.59.35c.63,2.2,6,21.6,3.31,25.31-.79,1.08-2.37,1.66-4.69,1.74Zm-14.52-12.64a5.52,5.52,0,0,0,.2,6.75c2.13,2.53,9.74,5,14.8,4.88,2-.07,3.34-.53,3.93-1.33,2-2.74-1.62-17.81-3.34-24l-3.78.88c2.32,10.5,2.92,16.09,1.78,16.62C211.61,179,202.7,175.82,199.44,174.59Z" fill="#231f20"></path><path d="M191.09,100.4l64.85,34.45c-18.9,35.59-63.72,49.3-99.31,30.4s-49.3-63.73-30.4-99.31,63.74-49.3,99.32-30.4a73.44,73.44,0,0,1,28.87,27.67Z" fill="#fff"></path><path d="M190.74,174.28A73.46,73.46,0,0,1,120.53,122,73.86,73.86,0,0,1,254.85,63a.49.49,0,0,1-.18.68l-62.56,36.73,64.07,34a.51.51,0,0,1,.21.68A73.37,73.37,0,0,1,212.69,171,74.74,74.74,0,0,1,190.74,174.28Zm.71-146.76a73.76,73.76,0,0,0-21.66,3.27,72.8,72.8,0,1,0,85.48,104.27l-64.42-34.22a.49.49,0,0,1-.26-.43.52.52,0,0,1,.25-.45L253.74,63A72.85,72.85,0,0,0,225.31,36,72,72,0,0,0,191.45,27.52Z" fill="#231f20"></path><path d="M148.1,157.61c-1.29,1.47-6.69,5.76-6.69,5.76s-9.51,18.29-14,18.29-26.36-12.14-26.36-12.14-2.46-2.32,0-6.55,23.4,8.49,23.4,8.49l12.22-12.25s1.08-3.26,1.29-4.5.06-4,1.36-3.63.45,4.47.45,4.47,4.36-5.31,5.86-3.61S149.37,156.14,148.1,157.61Z" fill="#fff"></path><path d="M127.43,182.16c-4.54,0-25.7-11.71-26.6-12.2l-.1-.08c-.11-.1-2.72-2.64-.09-7.16a2.16,2.16,0,0,1,1.41-1c4.81-1.23,19.83,7.59,22.35,9.1L136.26,159c.18-.59,1.05-3.26,1.22-4.32,0-.26.07-.58.1-.93.1-1.2.2-2.44.91-2.95a1.17,1.17,0,0,1,1-.16c1.1.29,1.19,2,1.07,3.38,1.16-1.21,3-2.84,4.32-2.87a1.57,1.57,0,0,1,1.17.51l.14.15c1.61,1.87,3.83,4.42,2.32,6.18h0a87,87,0,0,1-6.66,5.75C140.61,166,132,182.16,127.43,182.16Zm-26.05-13c7.55,4.18,22.63,12,26.05,12s10.93-13,13.54-18a.42.42,0,0,1,.13-.16c.06,0,5.38-4.28,6.62-5.69.95-1.11-1-3.37-2.32-4.87l-.13-.15a.46.46,0,0,0-.4-.17c-1.19,0-3.51,2.32-4.69,3.77a.51.51,0,0,1-.6.13.5.5,0,0,1-.28-.55c.39-1.89.34-3.78-.09-3.89-.1,0-.13,0-.14,0-.33.23-.43,1.47-.49,2.22,0,.37-.07.72-.11,1-.21,1.26-1.26,4.45-1.3,4.58a.82.82,0,0,1-.12.2l-12.22,12.24a.51.51,0,0,1-.62.07c-4.76-2.89-18-10.2-21.91-9.18a1.15,1.15,0,0,0-.79.52C99.43,166.79,101.09,168.8,101.38,169.12Zm46.72-11.51h0Z" fill="#231f20"></path><path d="M117.2,165.36l-6.43,11s-11.48-4.54-12.57-8.63,1-10.87,3.67-10.15S117.2,165.36,117.2,165.36Z" fill="#a5aeb0"></path><path d="M294.93,160.33,285,157.71,282,138l-7.67-3.2s1,25.95,4.48,28.22c6.76,4.48,18.6,6,18.6,6Z" fill="#fff"></path><path d="M297.44,169.57h-.07c-.49-.07-12-1.63-18.81-6.12-3.55-2.35-4.59-25.93-4.7-28.62a.53.53,0,0,1,.22-.43.54.54,0,0,1,.48-.05l7.66,3.2a.47.47,0,0,1,.3.38l2.94,19.38,9.6,2.54a.48.48,0,0,1,.35.34l2.51,8.75a.52.52,0,0,1-.11.46A.48.48,0,0,1,297.44,169.57Zm-22.54-34c.45,10.33,1.9,25.51,4.21,27,5.61,3.71,14.92,5.41,17.63,5.84l-2.21-7.72-9.64-2.55a.49.49,0,0,1-.37-.4l-2.94-19.43Z" fill="#231f20"></path><path d="M337.06,263.11c.19.54,2,3.58,1.6,4.17s-6.16,4.27-4.45,4.82,11.54-.78,11.54-.78l-5.95-15.6Z" fill="#fff"></path><path d="M335.75,272.73a6.31,6.31,0,0,1-1.69-.15.87.87,0,0,1-.65-.68c-.15-.86,1-1.89,3.59-3.89a14.41,14.41,0,0,0,1.25-1,14.67,14.67,0,0,0-1.21-2.79,8.83,8.83,0,0,1-.45-.94.5.5,0,0,1,0-.34l2.75-7.38a.48.48,0,0,1,.46-.33h0a.5.5,0,0,1,.47.32l6,15.6a.51.51,0,0,1-.4.68C345,271.93,339,272.73,335.75,272.73Zm-1.32-1.09c1.36.31,6.83-.24,10.63-.73l-5.25-13.77-2.21,6,.33.66c1.09,2.16,1.52,3.21,1.16,3.79a7.56,7.56,0,0,1-1.49,1.26A16.81,16.81,0,0,0,334.43,271.64Z" fill="#231f20"></path><path d="M309.33,260.09s3.41,9.82,2.83,10.05-15,3.55-14.37,2.67,7.35-4.39,7.43-4-.91-4.77-.91-4.77Z" fill="#fff"></path><path d="M298.22,273.37c-.44,0-.74-.05-.83-.17a.62.62,0,0,1,0-.68c.51-.72,5.41-3.51,7.29-4.11-.18-.73-.43-2-.85-4.25a.49.49,0,0,1,.18-.49l5-4a.52.52,0,0,1,.45-.09.5.5,0,0,1,.33.32c3.57,10.26,3.05,10.47,2.55,10.67C312.24,270.65,301.4,273.37,298.22,273.37Zm6.81-4.05a41.14,41.14,0,0,0-5.87,3.05c3.08-.43,10.88-2.14,12.56-2.62a74.75,74.75,0,0,0-2.63-8.83l-4.23,3.35c.18,1,.77,4.08.84,4.44v0a.53.53,0,0,1-.4.61C305.2,269.36,305.11,269.38,305,269.32Zm-.22-.4h-.08a.46.46,0,0,0,.22.31A1.24,1.24,0,0,1,304.81,268.92Z" fill="#231f20"></path><path d="M303.92,202.26s-10.08,20.84-10.21,27.44,8.51,34.36,8.51,34.36L311,262.6s-6.55-27.74-5.56-30.64S314,210.4,314,210.4s3,16,5.09,21.89,15.49,31.17,15.49,31.17l9.2-1.77s-12.19-28.27-12.64-33.15-2.85-31-2.85-31Z" fill="#231f20"></path><path d="M302.22,264.56a.5.5,0,0,1-.48-.35c-.35-1.14-8.65-27.91-8.53-34.52s9.85-26.79,10.26-27.65a.5.5,0,0,1,.36-.27l24.36-4.68a.48.48,0,0,1,.4.09.48.48,0,0,1,.19.35l2.85,31c.44,4.75,12.49,32.72,12.61,33a.5.5,0,0,1,0,.43.52.52,0,0,1-.34.26L334.67,264a.5.5,0,0,1-.54-.26c-.54-1-13.4-25.36-15.51-31.23-1.72-4.8-4-16-4.8-20.29-1.84,4.56-7.09,17.59-7.89,20-.7,2,2.95,19.27,5.57,30.37a.5.5,0,0,1-.07.39.51.51,0,0,1-.34.21l-8.79,1.46Zm2-61.86c-1.08,2.27-9.93,21-10.05,27s7.28,30.3,8.36,33.79l7.83-1.3c-1.07-4.57-6.39-27.59-5.42-30.41s8.25-20.81,8.55-21.58a.5.5,0,0,1,.52-.3.49.49,0,0,1,.44.4c0,.16,3,16,5.07,21.82,2,5.43,13.71,27.79,15.29,30.77l8.23-1.59c-1.78-4.14-12-28.15-12.44-32.73s-2.45-26.62-2.8-30.41Z" fill="#231f20"></path><polygon points="309.35 165.13 285.9 156.28 286.65 168.68 305.27 176.92 309.35 165.13" fill="#a5aeb0"></polygon><path d="M302.75,167.09c.7-1,15.18-4.28,19.56-.65s7.32,29.28,8,37.2l-28.5,2.06S298.88,172.36,302.75,167.09Z" fill="#a5aeb0"></path><path d="M301.58,203.41a.5.5,0,0,1-.49-.46c-.08-.95-1.8-23.27-.53-28.79a.5.5,0,0,1,.6-.38.49.49,0,0,1,.37.6c-1.23,5.37.54,28.26.55,28.49a.5.5,0,0,1-.46.54Z" fill="#231f20"></path><path d="M317.2,162.23a8.17,8.17,0,0,0,4.39.21,3.29,3.29,0,0,0,1.73-.95,1.54,1.54,0,0,0,.18-1.85,2.3,2.3,0,0,0,1.88-1,4.06,4.06,0,0,0,.73-2.05,2.8,2.8,0,0,0-.83-2.6c.7-.41,1.47-.93,1.6-1.73a2.58,2.58,0,0,0-.16-1.2,12.83,12.83,0,0,0-1-2.22c-.2-.37-.51-.79-.94-.77a4.17,4.17,0,0,0-1-4.28,3.42,3.42,0,0,0-2-1,13.46,13.46,0,0,0-2.41.29,4.2,4.2,0,0,0-3.5-1.4,2.9,2.9,0,0,0-2.15,2,6.3,6.3,0,0,0-2.69.36,3.1,3.1,0,0,0-1.84,1.89,2.06,2.06,0,0,0,.91,2.36,2.18,2.18,0,0,0-1.7,2.34,2.67,2.67,0,0,0,2,2.22.82.82,0,0,1,.41.16,1.1,1.1,0,0,1,.23.5c.19.56.73.78,1,1.25a14.91,14.91,0,0,1,.84,2.2,20.15,20.15,0,0,0,.95,2.06,13,13,0,0,0,1.15,2.3c.48.58,1,.54,1.67.75Z" fill="#fff"></path><path d="M319.87,163.15a10.41,10.41,0,0,1-2.81-.44h0l-.53-.15c-.15-.05-.3-.08-.43-.11a2.38,2.38,0,0,1-1.47-.81,6.37,6.37,0,0,1-.88-1.62,6.51,6.51,0,0,0-.34-.76c-.31-.62-.68-1.36-1-2.11-.09-.23-.17-.49-.25-.75a7.24,7.24,0,0,0-.55-1.37,1.93,1.93,0,0,0-.37-.4,2.37,2.37,0,0,1-.69-.95l0-.12a.8.8,0,0,0-.06-.17l-.14,0a3.19,3.19,0,0,1-2.43-2.67,2.74,2.74,0,0,1,1.26-2.55,2.67,2.67,0,0,1-.45-2.33,3.6,3.6,0,0,1,2.13-2.23,6.42,6.42,0,0,1,2.54-.4,3.42,3.42,0,0,1,2.39-2,4.69,4.69,0,0,1,3.77,1.34,13.72,13.72,0,0,1,2.31-.24,4,4,0,0,1,2.29,1.17,4.67,4.67,0,0,1,1.29,4.29,2.21,2.21,0,0,1,.76.87,14.12,14.12,0,0,1,1,2.3,3,3,0,0,1,.19,1.44,2.77,2.77,0,0,1-1.31,1.75,3.66,3.66,0,0,1,.54,2.55,4.55,4.55,0,0,1-.83,2.3,3,3,0,0,1-1.57,1.08,2.22,2.22,0,0,1-.51,1.76,3.68,3.68,0,0,1-2,1.1A7.26,7.26,0,0,1,319.87,163.15Zm-2.54-1.4a7.86,7.86,0,0,0,4.14.2,2.76,2.76,0,0,0,1.47-.78,1.07,1.07,0,0,0,.16-1.23.49.49,0,0,1,0-.53.44.44,0,0,1,.46-.26,1.89,1.89,0,0,0,1.46-.78,3.53,3.53,0,0,0,.64-1.8c0-.36.1-1.59-.64-2.13a.51.51,0,0,1-.2-.43.5.5,0,0,1,.24-.41c.61-.36,1.27-.8,1.37-1.39a2.09,2.09,0,0,0-.15-1,12.92,12.92,0,0,0-.92-2.13c-.21-.38-.35-.5-.48-.51a.44.44,0,0,1-.42-.21.49.49,0,0,1-.07-.47,3.67,3.67,0,0,0-.9-3.75,3,3,0,0,0-1.73-.88c-.23,0-1.74.16-2.1.24a.48.48,0,0,1-.62-.12h0a3.76,3.76,0,0,0-3-1.23,2.38,2.38,0,0,0-1.77,1.64.49.49,0,0,1-.5.36,5.68,5.68,0,0,0-2.48.32,2.56,2.56,0,0,0-1.54,1.57,1.56,1.56,0,0,0,.65,1.78.5.5,0,0,1-.15.93,1.7,1.7,0,0,0-1.28,1.8,2.16,2.16,0,0,0,1.63,1.78,1.43,1.43,0,0,1,.62.28,1.38,1.38,0,0,1,.34.62,1.3,1.3,0,0,0,.45.62,3.07,3.07,0,0,1,.55.62,8.16,8.16,0,0,1,.64,1.58c.08.25.15.48.24.7a19.65,19.65,0,0,0,.92,2c.14.27.26.55.38.84a5.38,5.38,0,0,0,.72,1.37,1.36,1.36,0,0,0,.92.46l.51.13.5.15Z" fill="#231f20"></path><path d="M310.54,153.52s-2.87,2.41-2.65,3.15,1.71.74,1.71.74" fill="#fff"></path><path d="M309.59,157.91c-.21,0-1.86,0-2.18-1.1-.21-.7.73-1.93,2.81-3.67a.49.49,0,0,1,.7.06.51.51,0,0,1-.06.71,9.67,9.67,0,0,0-2.48,2.68c.05.15.7.32,1.22.32a.5.5,0,0,1,0,1Z" fill="#231f20"></path><path d="M313.13,147.17a.94.94,0,0,0-.56.35,6.42,6.42,0,0,0-1.21,2,38.35,38.35,0,0,0-1.48,4.47q-.87,3-1.59,6c-.31,1.28,2.94,2.29,3.63,2.08l-2,4.83s1.43.9,4.43.46,3.21-1.05,3.21-1.05l1.5-5.81A4.29,4.29,0,0,1,316.4,157a8.9,8.9,0,0,0-.14-1.57c-.22-.53-.71-.77-.79-1.41a1.9,1.9,0,0,1,.57-1.61c.1-.09.21-.2.18-.32a.36.36,0,0,0-.14-.18,1.63,1.63,0,0,1,0-2.3c-.82-.25-1.12-1.24-1.3-2.08.06.26-1.31-.33-1.33-.33A.81.81,0,0,0,313.13,147.17Z" fill="#fff"></path><path d="M312.79,168.05a6.3,6.3,0,0,1-3.13-.65.51.51,0,0,1-.2-.62l1.72-4.16a6.11,6.11,0,0,1-2.86-1.27,1.41,1.41,0,0,1-.52-1.4c.49-2,1-4,1.6-6l.12-.42a34.81,34.81,0,0,1,1.38-4.11,6.79,6.79,0,0,1,1.32-2.21,1.44,1.44,0,0,1,.84-.49h0a1.34,1.34,0,0,1,.48,0l.14.05a6.49,6.49,0,0,0,.87.31l.11,0a.49.49,0,0,1,.59.39h0c.15.7.39,1.53,1,1.7a.49.49,0,0,1,.34.37.51.51,0,0,1-.15.48,1.12,1.12,0,0,0,0,1.56.79.79,0,0,1,.3.43.83.83,0,0,1-.32.8A1.42,1.42,0,0,0,316,154a1.21,1.21,0,0,0,.33.6,2.94,2.94,0,0,1,.43.68,3,3,0,0,1,.14,1.12,3.32,3.32,0,0,0,0,.56,3.81,3.81,0,0,0,2.32,3.18.49.49,0,0,1,.34.6l-1.49,5.82c-.16.45-.9,1-3.62,1.42A11.23,11.23,0,0,1,312.79,168.05Zm-2.22-1.34a7.81,7.81,0,0,0,3.72.23,6.6,6.6,0,0,0,2.83-.79l1.36-5.29a5,5,0,0,1-2.57-3.78,4.14,4.14,0,0,1-.05-.72,2.33,2.33,0,0,0-.07-.75,2,2,0,0,0-.28-.44,2.15,2.15,0,0,1-.54-1.1,2.39,2.39,0,0,1,.64-1.94,2.08,2.08,0,0,1-.52-1.37,2.16,2.16,0,0,1,.23-1,3.22,3.22,0,0,1-.95-1.72,8.14,8.14,0,0,1-1.06-.37.35.35,0,0,0-.12,0h0c-.05,0-.12.07-.27.21a6.13,6.13,0,0,0-1.1,1.9,33.18,33.18,0,0,0-1.33,4l-.13.43c-.57,2-1.11,4-1.59,6q0,.18.21.42a4.89,4.89,0,0,0,2.8,1.06.54.54,0,0,1,.51.16.48.48,0,0,1,.09.51Zm2.56-19.54h0Z" fill="#231f20"></path><path d="M315.4,155.54a2.77,2.77,0,0,1,1-1.19,3.92,3.92,0,0,1,1-.69,1.37,1.37,0,0,1,1.17,0,1.26,1.26,0,0,1,.6.85,2.53,2.53,0,0,1-.05,1.06,4.44,4.44,0,0,1-3.1,3.2l.15-.09" fill="#fff"></path><path d="M316,159.26a.5.5,0,0,1-.46-.3.52.52,0,0,1,.2-.63l.16-.09a.43.43,0,0,1,.29-.06,4,4,0,0,0,2.43-2.73,1.9,1.9,0,0,0,0-.84.75.75,0,0,0-.35-.52.86.86,0,0,0-.73,0,3.4,3.4,0,0,0-.86.61,2.32,2.32,0,0,0-.82,1,.5.5,0,0,1-.95-.31A3.19,3.19,0,0,1,316,154a4.37,4.37,0,0,1,1.11-.77,1.85,1.85,0,0,1,1.61,0,1.78,1.78,0,0,1,.85,1.18,3,3,0,0,1-.05,1.29,4.93,4.93,0,0,1-3.46,3.56Z" fill="#231f20"></path><path d="M311.92,162.14a5.54,5.54,0,0,0,3-.95s-1,3-3.88,3.1Z" fill="#231f20"></path><path d="M311,164.79a.52.52,0,0,1-.41-.21.54.54,0,0,1-.05-.48l.89-2.15a.5.5,0,0,1,.46-.31,5,5,0,0,0,2.67-.83.51.51,0,0,1,.6,0,.49.49,0,0,1,.19.57c-.05.14-1.16,3.33-4.33,3.44Zm1.24-2.17-.44,1a3.73,3.73,0,0,0,1.86-1.3A7.36,7.36,0,0,1,312.27,162.62Z" fill="#231f20"></path><ellipse cx="312.48" cy="152.29" rx="0.74" ry="0.29" transform="translate(86.95 416.82) rotate(-75.53)" fill="#231f20"></ellipse><path d="M310.38,159.44a2.16,2.16,0,0,1-1.56-.61.5.5,0,1,1,.73-.68c.08.08.79.73,2.15-.18a.5.5,0,0,1,.69.14.49.49,0,0,1-.14.69A3.29,3.29,0,0,1,310.38,159.44Z" fill="#231f20"></path><path d="M287.1,149.94l-.18.23-59.3-43.31,67.81-28.22A73.53,73.53,0,0,1,287.1,149.94Z" fill="#fff"></path><path d="M286.92,150.67a.52.52,0,0,1-.29-.09l-59.3-43.32a.49.49,0,0,1-.2-.46.52.52,0,0,1,.3-.41l67.8-28.22a.53.53,0,0,1,.39,0,.51.51,0,0,1,.27.27,74.45,74.45,0,0,1-8.39,71.8h0l-.18.24A.48.48,0,0,1,286.92,150.67Zm.18-.73h0Zm-58.46-43,58.18,42.5a73.44,73.44,0,0,0,8.34-70.19Z" fill="#231f20"></path><path d="M321.36,169.62s-22.12-8.6-23.09-10.9c-.76-1.78-.58-4.21-.84-6.09-.41-2.94-.34-5.88-1-8.82a2.21,2.21,0,0,1-.05-1,2.18,2.18,0,0,1,.42-.74c.36-.53,2.59-4.38.72-4.28a.87.87,0,0,0-.51.3c-.24.25-1,1-1,1a27.65,27.65,0,0,0-.63-3.67,2.16,2.16,0,0,0-2.62-1.38,3.11,3.11,0,0,0-2.36,1.85,3.91,3.91,0,0,0-.07,1.18,53.89,53.89,0,0,1,.21,8.22,70.37,70.37,0,0,0-.56,7.23,64.64,64.64,0,0,0,.34,7.36c.19,1.57.35,3.65,1.41,4.92,2.77,3.35,21.82,14.54,27,12.14S321.36,169.62,321.36,169.62Z" fill="#fff"></path><path d="M316.92,177.75c-3.69,0-9.36-2.56-12.8-4.3-5.64-2.86-11.24-6.53-12.75-8.35-1.07-1.3-1.29-3.26-1.47-4.83l0-.35a64.92,64.92,0,0,1-.35-7.42,58.76,58.76,0,0,1,.47-6.38l.09-.9a31.51,31.51,0,0,0-.06-5.74c-.06-.79-.12-1.6-.15-2.41a4.09,4.09,0,0,1,.09-1.33,3.58,3.58,0,0,1,2.73-2.2,2.65,2.65,0,0,1,3.19,1.66,16.09,16.09,0,0,1,.54,2.81l.29-.29a1.3,1.3,0,0,1,.83-.45,1.08,1.08,0,0,1,1.11.54c.72,1.3-1.37,4.5-1.4,4.53a2.55,2.55,0,0,0-.34.58,1.81,1.81,0,0,0,.06.78,38.61,38.61,0,0,1,.62,5.26c.09,1.18.18,2.41.34,3.6.09.64.13,1.31.17,2a12.13,12.13,0,0,0,.64,3.93c.61,1.45,13.71,7.1,22.81,10.64a.51.51,0,0,1,.27.23,6.58,6.58,0,0,1,.41,4.67,5.74,5.74,0,0,1-3.26,3.31A4.74,4.74,0,0,1,316.92,177.75Zm-23.53-43.3a2.12,2.12,0,0,0-.49.06,2.68,2.68,0,0,0-2,1.5,3.43,3.43,0,0,0-.05,1c0,.8.09,1.59.14,2.38a33.37,33.37,0,0,1,.07,5.92l-.1.9a57.12,57.12,0,0,0-.46,6.27,62.49,62.49,0,0,0,.34,7.3l0,.35c.17,1.45.37,3.24,1.25,4.31,2.88,3.49,21.61,14.22,26.4,12a4.8,4.8,0,0,0,2.73-2.73A5.47,5.47,0,0,0,321,170c-4.12-1.61-22.2-8.77-23.18-11.11a13.13,13.13,0,0,1-.72-4.26c0-.7-.07-1.35-.16-2-.17-1.23-.26-2.47-.34-3.67a39.22,39.22,0,0,0-.6-5.12,2.61,2.61,0,0,1-.05-1.25,2.42,2.42,0,0,1,.44-.83c.73-1,1.68-3.22,1.38-3.54h0a.28.28,0,0,0-.17,0,.67.67,0,0,0-.18.16l-1,1a.48.48,0,0,1-.51.12.54.54,0,0,1-.34-.42,23.49,23.49,0,0,0-.59-3.52A1.66,1.66,0,0,0,293.39,134.45Z" fill="#231f20"></path><path d="M320.88,180.54l-18.05-6.27,1.28-15s16.83,6.26,19.39,9.66S327.85,181.18,320.88,180.54Z" fill="#a5aeb0"></path><path d="M321.81,181.17c-4.08,0-15.09-5.33-16.43-6a.49.49,0,0,1-.23-.66.5.5,0,0,1,.67-.23c5.58,2.73,14.58,6.52,16.54,5.81a3.1,3.1,0,0,0,1.92-3.56.5.5,0,1,1,1-.2,4.05,4.05,0,0,1-2.56,4.7A2.54,2.54,0,0,1,321.81,181.17Z" fill="#231f20"></path><path d="M201.13,220l-1,2c-2.72,5.24-4.55,16.39-10.06,21.55-2,1.9-20.94,15.06-20.94,15.06L166.67,252s14.29-14.57,15.77-16.1c1.89-1.93,9.95-29.88,9.95-29.88Z" fill="#fff"></path><path d="M169.08,259.06a.39.39,0,0,1-.15,0,.49.49,0,0,1-.32-.31l-2.41-6.61a.5.5,0,0,1,.11-.52l15.78-16.1c1.32-1.35,6.59-18.48,9.81-29.67a.52.52,0,0,1,.42-.36.51.51,0,0,1,.49.23l8.74,14a.52.52,0,0,1,0,.5l-1,2a52.12,52.12,0,0,0-2.59,6.75c-1.79,5.36-3.83,11.42-7.58,14.94-2,1.9-20.22,14.57-21,15.1A.52.52,0,0,1,169.08,259.06Zm-1.83-7,2.08,5.7c3.08-2.15,18.55-13,20.34-14.64,3.58-3.34,5.57-9.28,7.33-14.52a52.2,52.2,0,0,1,2.64-6.9l.91-1.75-8-12.79c-1.63,5.64-8,27.21-9.75,29C181.43,237.62,169.06,250.23,167.25,252.08Z" fill="#231f20"></path><path d="M166.67,252s-5.45.91-5.41,1.72,4.38,14.54,6,14,1.82-9.06,1.82-9.06Z" fill="#231f20"></path><path d="M167.16,268.14a1.07,1.07,0,0,1-.56-.18c-2.08-1.39-5.8-13.62-5.84-14.27,0-.37-.06-1.25,5.83-2.23a.49.49,0,0,1,.55.32l2.41,6.61a.58.58,0,0,1,0,.19c-.05,2.06-.34,8.86-2.15,9.51A.72.72,0,0,1,167.16,268.14Zm-5.38-14.38c.31,1.71,4.09,12.92,5.41,13.38.6-.24,1.28-4.12,1.39-8.49l-2.24-6.13A17.7,17.7,0,0,0,161.78,253.76Z" fill="#231f20"></path><path d="M207.65,215.86s.26.82.67,2.16c1.77,5.63,6.36,22.75,6.51,25,.18,2.78-8.92,22.94-8.92,22.94L199,264.74S204.05,243.1,204,241c0-2.71-12.44-28.86-12.44-28.86Z" fill="#fff"></path><path d="M205.91,266.46h-.08l-6.93-1.22a.45.45,0,0,1-.33-.22.48.48,0,0,1-.07-.39c1.4-6,5.05-21.94,5-23.64,0-1.9-7.42-18.17-12.39-28.65a.49.49,0,0,1,.06-.52.51.51,0,0,1,.5-.18l16.06,3.74a.5.5,0,0,1,.36.34l.68,2.16c1.7,5.42,6.37,22.72,6.53,25.11.18,2.83-8,21.11-9,23.19A.5.5,0,0,1,205.91,266.46Zm-6.32-2.12,6,1.06c3.63-8.07,8.84-20.43,8.71-22.35-.14-2.15-4.66-19-6.48-24.88l-.59-1.89-14.78-3.44c2.45,5.17,12,25.6,12.05,28.13C204.55,243,200.38,261,199.59,264.34Z" fill="#231f20"></path><path d="M182.42,156.71a10.75,10.75,0,0,0-4.21,1.18c-2.28,1.09-4.46,2.89-5,5.37a9,9,0,0,0,1.33,5.88,28.09,28.09,0,0,1,2.71,5.5c.55,2,.3,4.36-1.27,5.69a21.31,21.31,0,0,0,5.84-3.41,5.38,5.38,0,0,0,1.9-3.38,7,7,0,0,0-.78-3.13,13.81,13.81,0,0,1-1.43-4.61,4.49,4.49,0,0,1,1.88-4.2c1.22-.71,5.21-.65,4.58-2.89C187.52,157,183.84,156.66,182.42,156.71Z" fill="#fff"></path><path d="M176,180.83a.5.5,0,0,1-.32-.88c1.52-1.29,1.55-3.59,1.11-5.17a17.6,17.6,0,0,0-1.89-4c-.26-.46-.53-.92-.78-1.39-1.31-2.44-1.75-4.42-1.38-6.22.63-3.09,3.55-4.91,5.23-5.72a11.3,11.3,0,0,1,4.41-1.23h0s5.38-.18,6.09,2.36a1.8,1.8,0,0,1-.14,1.45c-.55.94-1.95,1.27-3.18,1.56a5.92,5.92,0,0,0-1.48.46,4,4,0,0,0-1.64,3.73,13.17,13.17,0,0,0,1.3,4.24l.08.2a7.16,7.16,0,0,1,.82,3.37,5.74,5.74,0,0,1-2.06,3.71,21.83,21.83,0,0,1-6,3.5A.52.52,0,0,1,176,180.83Zm6.42-23.62a10.2,10.2,0,0,0-4,1.13c-1.52.73-4.15,2.35-4.69,5-.32,1.56.09,3.32,1.28,5.54.25.46.51.92.77,1.38a18.17,18.17,0,0,1,2,4.23,7.08,7.08,0,0,1-.21,4.57,16.08,16.08,0,0,0,4-2.53,4.92,4.92,0,0,0,1.74-3,6.5,6.5,0,0,0-.74-2.9l-.09-.2a14,14,0,0,1-1.38-4.57,5,5,0,0,1,2.13-4.67,6.89,6.89,0,0,1,1.76-.56c1-.24,2.21-.53,2.55-1.1a.84.84,0,0,0,0-.67c-.36-1.28-3.49-1.7-5.09-1.63Z" fill="#231f20"></path><path d="M184.2,157.22a4.28,4.28,0,0,0-.52,2.77,3.32,3.32,0,0,0,.67,1.77,2.54,2.54,0,0,0,2.1.82,1.4,1.4,0,0,0,.94-.39,1.57,1.57,0,0,0,.34-.79C188.16,159.39,186.69,153.29,184.2,157.22Z" fill="#231f20"></path><path d="M186.25,163.09a3,3,0,0,1-2.28-1,3.68,3.68,0,0,1-.79-2,4.74,4.74,0,0,1,.6-3.09h0c1-1.6,1.93-1.66,2.51-1.42,1.58.64,2.26,4.4,1.93,6a2.08,2.08,0,0,1-.46,1,1.85,1.85,0,0,1-1.27.55Zm-1.63-5.61a3.8,3.8,0,0,0-.45,2.45,2.83,2.83,0,0,0,.56,1.5,2.07,2.07,0,0,0,1.68.65,1,1,0,0,0,.61-.23,1.14,1.14,0,0,0,.22-.55c.3-1.4-.43-4.48-1.32-4.85-.46-.17-1.06.66-1.3,1Z" fill="#231f20"></path><path d="M197.31,170.34a3.14,3.14,0,0,1-3,.94,7.6,7.6,0,0,1-3.4-1.37,12.88,12.88,0,0,1-5.33-12.47c.8-4.79,5.57-9.56,10.71-7.74a6.32,6.32,0,0,1,3.78,3.77,1.9,1.9,0,0,1,2,.52c1.33,1.32,1.28,2.74.57,4.33-1.17,2.62-2.61,5.11-3.66,7.78C198.41,167.65,198.18,169.32,197.31,170.34Z" fill="#fff"></path><path d="M194.94,171.81a4.82,4.82,0,0,1-.65,0,7.87,7.87,0,0,1-3.64-1.45,13.29,13.29,0,0,1-5.53-13,11,11,0,0,1,5-7.45,7.34,7.34,0,0,1,6.33-.68,6.8,6.8,0,0,1,3.91,3.64,2.57,2.57,0,0,1,2.06.77,4,4,0,0,1,.67,4.89c-.48,1.08-1,2.15-1.53,3.19-.74,1.48-1.5,3-2.11,4.56-.2.5-.36,1-.51,1.52a7.87,7.87,0,0,1-1.29,2.87h0A3.41,3.41,0,0,1,194.94,171.81Zm-.89-22a6.69,6.69,0,0,0-3.38,1,10.05,10.05,0,0,0-4.57,6.75,12.44,12.44,0,0,0,5.12,12,6.88,6.88,0,0,0,3.17,1.29,2.64,2.64,0,0,0,2.54-.76h0a7.28,7.28,0,0,0,1.09-2.51c.16-.53.33-1.07.54-1.6.63-1.59,1.4-3.14,2.14-4.64.52-1,1.05-2.09,1.52-3.15.72-1.61.58-2.74-.47-3.78a1.4,1.4,0,0,0-1.44-.41.47.47,0,0,1-.4,0,.5.5,0,0,1-.28-.29,5.73,5.73,0,0,0-3.48-3.46A6.07,6.07,0,0,0,194.05,149.8Z" fill="#231f20"></path><path d="M201.12,159.28s3.12,2.65,2.87,3.46-1.87.79-1.87.79" fill="#fff"></path><path d="M202.14,164h0a.49.49,0,0,1-.49-.5.5.5,0,0,1,.5-.5h0c.52,0,1.28-.16,1.37-.44a11.6,11.6,0,0,0-2.71-2.93.5.5,0,1,1,.64-.76c1.54,1.31,3.31,3.06,3,4C204.12,164,202.44,164,202.14,164Z" fill="#231f20"></path><path d="M202.85,177.16c-3.49.28-9.48-3.23-9.52-3.36a70.41,70.41,0,0,1-1.58-6.9A4.66,4.66,0,0,0,194.7,163c.58-3.22,3.55-3.71,4.7-7.93,1.71.72,2,3.22,2.43,4.77.62,2.18,1.18,4.37,1.7,6.58.32,1.4-3.24,2.47-4,2.24Z" fill="#fff"></path><path d="M202.5,177.68c-3.44,0-9.44-3.11-9.64-3.73a66.22,66.22,0,0,1-1.6-7,.51.51,0,0,1,.36-.57,4.18,4.18,0,0,0,2.59-3.49,7.1,7.1,0,0,1,2.16-3.73,9.62,9.62,0,0,0,2.55-4.25.5.5,0,0,1,.68-.32c1.65.7,2.12,2.67,2.5,4.26.07.29.14.57.22.83.61,2.19,1.18,4.41,1.69,6.61a1.47,1.47,0,0,1-.56,1.48,6.55,6.55,0,0,1-3.18,1.36c.58,1.5.84,2.18,3,7.81a.51.51,0,0,1,0,.45.52.52,0,0,1-.39.23Zm-8.74-4.18c.82.55,5.32,3,8.36,3.17l-3.05-7.81a.5.5,0,0,1,.1-.52.5.5,0,0,1,.52-.14,5.39,5.39,0,0,0,3.1-1.14c.2-.19.28-.36.25-.51-.51-2.18-1.08-4.39-1.69-6.56-.07-.26-.14-.56-.22-.87a6.38,6.38,0,0,0-1.44-3.27,10.82,10.82,0,0,1-2.58,4,6.22,6.22,0,0,0-1.92,3.24,5.34,5.34,0,0,1-2.87,4.1C192.53,168.35,193.17,171.64,193.76,173.5Z" fill="#231f20"></path><path d="M203,164.83a1.84,1.84,0,0,1-2.79,0" fill="#fff"></path><path d="M201.54,166a2.32,2.32,0,0,1-1.69-.81.5.5,0,0,1,0-.71.51.51,0,0,1,.71,0,1.23,1.23,0,0,0,1,.5,1.85,1.85,0,0,0,1.1-.53.48.48,0,0,1,.7,0,.5.5,0,0,1,0,.7,2.85,2.85,0,0,1-1.82.86Z" fill="#231f20"></path><path d="M199.54,168.68a4,4,0,0,1-3.09-.58s1.09,3.31,4.2,3.44Z" fill="#231f20"></path><path d="M200.65,172h0c-3.42-.15-4.6-3.63-4.65-3.78a.51.51,0,0,1,.19-.57.5.5,0,0,1,.6,0,3.44,3.44,0,0,0,2.65.47.51.51,0,0,1,.59.31l1.11,2.86a.49.49,0,0,1-.06.47A.51.51,0,0,1,200.65,172Zm-3.1-2.87a4.19,4.19,0,0,0,2.33,1.75l-.66-1.68A5.16,5.16,0,0,1,197.55,169.17Z" fill="#231f20"></path><ellipse cx="200.08" cy="158.44" rx="0.32" ry="0.81" transform="translate(-28.9 45.74) rotate(-12.17)" fill="#231f20"></ellipse><path d="M197,161.68a3.1,3.1,0,0,0-1-1.31,4.43,4.43,0,0,0-1.07-.76,1.47,1.47,0,0,0-1.28,0,1.35,1.35,0,0,0-.65.92,2.53,2.53,0,0,0,0,1.16,4.85,4.85,0,0,0,3.35,3.52l-.16-.1" fill="#fff"></path><path d="M196.35,165.69l-.13,0a5.32,5.32,0,0,1-3.71-3.89,3.1,3.1,0,0,1,0-1.38,1.86,1.86,0,0,1,.91-1.25,2,2,0,0,1,1.71,0,4.67,4.67,0,0,1,1.2.84,3.47,3.47,0,0,1,1.19,1.55.48.48,0,0,1-.33.62.5.5,0,0,1-.62-.33,2.7,2.7,0,0,0-.89-1.09,3.74,3.74,0,0,0-.95-.67,1,1,0,0,0-.84,0,.87.87,0,0,0-.41.59,2.19,2.19,0,0,0,0,.94,4.39,4.39,0,0,0,2.69,3,.42.42,0,0,1,.28.07l.16.09a.5.5,0,0,1-.26.93Z" fill="#231f20"></path><path d="M205.57,175.75s-10.2-5.16-13.82-1.72-3.42,14.67-3.61,33.46l22-1.52S210.52,178.48,205.57,175.75Z" fill="#a5aeb0"></path><path d="M188.14,207.49l-10.47,28s26.86,9.2,39.18,7.07L210.18,206Z" fill="#231f20"></path><path d="M212.55,243.43c-13.21,0-34.06-7.08-35-7.42a.5.5,0,0,1-.29-.26.53.53,0,0,1,0-.39l10.47-28a.51.51,0,0,1,.44-.33l22-1.52a.48.48,0,0,1,.52.41l6.67,36.64a.44.44,0,0,1-.08.37.49.49,0,0,1-.32.21A25.88,25.88,0,0,1,212.55,243.43Zm-34.23-8.2c3.64,1.2,26.61,8.6,38,7l-6.5-35.69L188.5,208Z" fill="#231f20"></path><path d="M199,264.74s-1.94,5.17-1.22,5.54,14.78,3.49,15.09,1.79-6.94-6.11-6.94-6.11Z" fill="#231f20"></path><path d="M211,273.06c-4.14,0-13-2.09-13.5-2.34s-1.13-.57,1-6.16a.49.49,0,0,1,.55-.31l6.93,1.22a.49.49,0,0,1,.17.06c1.77,1.08,7.51,4.74,7.17,6.63a.93.93,0,0,1-.54.65A4.3,4.3,0,0,1,211,273.06Zm-12.94-3.18c1.64.59,13.24,2.92,14.3,2,.09-.64-2.94-3.17-6.67-5.45l-6.42-1.14A18,18,0,0,0,198.1,269.88Zm0,.08h0Z" fill="#231f20"></path><path d="M199.77,175.6c3.32,1.16,15.1,9.15,16,8s5.4-13.44,5.38-14.27-2.63-1.43-1.78-1.75l2.74-1s-.8-5.12,2.4-5.38c1.25-.11,2.18,2.12,1.92,5.48-.14,1.88-2.42,21.16-5.29,24.68s-7.5,2.69-16.12-2.1-12.67-8.63-11.5-11.4S195.91,174.26,199.77,175.6Z" fill="#fff"></path><path d="M216.56,194c-3.15,0-7.1-1.73-11.73-4.3-9.16-5.09-13-9-11.72-12,1.38-3.26,3-3.84,6.82-2.5h0a59.59,59.59,0,0,1,6.9,3.68c3.08,1.79,7.7,4.52,8.65,4.39,1-1.38,5.14-12.83,5.22-13.9a3.87,3.87,0,0,0-1-.63c-.58-.32-1-.55-1-1a.67.67,0,0,1,.5-.58l2.37-.88c-.09-.92-.17-3.14.88-4.48a2.74,2.74,0,0,1,2-1.06,1.62,1.62,0,0,1,1.28.51c.93.92,1.37,3,1.18,5.51,0,.2-2.23,21.07-5.4,24.95A6.13,6.13,0,0,1,216.56,194Zm-19.75-18.5c-1.5,0-2.09.92-2.78,2.56s.68,4.87,11.28,10.76c8.67,4.82,12.87,5.42,15.49,2.22s5-21.56,5.19-24.4c.19-2.64-.36-4.19-.9-4.72a.54.54,0,0,0-.49-.22,1.7,1.7,0,0,0-1.31.68c-1,1.33-.64,4.09-.63,4.12a.5.5,0,0,1-.33.54l-2.12.79h0c.69.37,1.48.8,1.49,1.5,0,.88-4.46,13.35-5.49,14.6-.74.9-2.88-.15-9.88-4.21a59.25,59.25,0,0,0-6.73-3.61A9,9,0,0,0,196.81,175.46Z" fill="#231f20"></path></g></svg>